<?xml version="1.0" encoding="UTF-8" ?>
<!DOCTYPE svg PUBLIC "-//W3C//DTD SVG 1.1//EN" "http://www.w3.org/Graphics/SVG/1.1/DTD/svg11.dtd">
<svg width="512pt" height="512pt" viewBox="0 0 512 512" version="1.1" xmlns="http://www.w3.org/2000/svg">
<g id="#000000ff">
<path fill="#000000" opacity="1.00" d=" M 30.66 0.67 C 71.11 21.76 111.54 42.88 151.98 64.00 C 133.33 72.68 114.66 81.32 96.01 90.00 C 103.05 103.28 110.09 116.55 117.16 129.81 C 119.07 133.70 120.47 137.81 122.40 141.69 C 130.09 160.32 132.13 181.27 127.91 201.00 C 124.37 219.61 113.92 235.70 105.40 252.31 C 99.96 263.04 93.18 273.32 90.32 285.16 C 87.12 298.01 88.59 311.88 94.17 323.87 C 95.22 325.96 95.67 328.29 96.62 330.42 C 110.20 356.06 123.77 381.70 137.34 407.34 C 125.11 413.79 112.89 420.22 100.66 426.65 C 87.19 401.00 73.71 375.36 60.26 349.70 C 56.32 343.81 53.53 337.20 51.48 330.43 C 44.89 310.25 44.97 287.96 51.62 267.81 C 53.61 261.52 56.06 255.26 59.80 249.79 C 65.44 239.07 71.04 228.32 76.66 217.60 C 81.69 208.24 86.75 198.59 88.15 187.91 C 90.14 175.21 86.73 162.27 80.83 151.04 C 73.25 136.61 65.82 122.10 58.08 107.76 C 38.87 116.34 19.82 125.29 0.66 133.99 C 10.65 89.55 20.65 45.11 30.66 0.67 Z" />
<path fill="#000000" opacity="1.00" d=" M 210.66 0.67 C 251.11 21.76 291.54 42.88 331.98 64.00 C 313.33 72.68 294.66 81.32 276.01 90.00 C 282.60 102.43 289.20 114.86 295.81 127.28 C 298.48 131.85 300.04 136.94 302.39 141.67 C 309.81 159.70 312.05 179.93 308.26 199.10 C 306.47 209.55 302.54 219.49 297.81 228.93 C 290.47 242.86 282.96 256.70 275.72 270.68 C 269.26 283.28 266.80 298.08 270.11 311.95 C 271.38 318.40 274.58 324.19 276.61 330.39 C 290.19 356.04 303.77 381.69 317.34 407.34 C 305.12 413.79 292.89 420.22 280.66 426.65 C 267.18 400.98 253.69 375.31 240.23 349.64 C 232.95 338.51 229.38 325.36 227.36 312.32 C 224.74 290.19 228.89 266.81 240.86 247.85 C 245.96 237.97 251.16 228.15 256.30 218.29 C 261.42 208.71 266.71 198.88 268.14 187.95 C 270.14 175.26 266.75 162.33 260.86 151.10 C 253.27 136.65 245.83 122.12 238.08 107.76 C 218.87 116.34 199.82 125.29 180.66 133.99 C 190.65 89.55 200.65 45.11 210.66 0.67 Z" />
<path fill="#000000" opacity="1.00" d=" M 360.66 133.99 C 370.66 89.55 380.64 45.10 390.66 0.67 C 431.11 21.77 471.55 42.88 511.98 64.00 C 493.33 72.68 474.66 81.32 456.01 90.00 C 461.44 100.25 466.88 110.49 472.32 120.73 C 478.17 131.39 483.37 142.50 486.65 154.24 C 491.31 171.79 491.25 190.62 486.15 208.07 C 483.54 217.66 479.14 226.64 474.41 235.34 C 468.52 246.46 462.59 257.56 456.71 268.68 C 449.80 281.50 446.68 296.64 449.90 311.00 C 451.11 317.79 454.44 323.87 456.59 330.36 C 470.18 356.01 483.76 381.68 497.34 407.34 C 485.12 413.79 472.89 420.22 460.66 426.65 C 447.18 400.99 433.71 375.34 420.25 349.68 C 412.97 338.56 409.39 325.43 407.38 312.41 C 404.72 290.23 408.89 266.79 420.89 247.78 C 426.20 237.50 431.61 227.28 436.96 217.02 C 441.90 207.87 446.76 198.40 448.14 187.95 C 450.15 175.25 446.74 162.30 440.84 151.06 C 433.25 136.62 425.82 122.11 418.08 107.76 C 398.87 116.34 379.82 125.29 360.66 133.99 Z" />
<path fill="#000000" opacity="1.00" d=" M 0.00 471.00 C 170.67 471.00 341.33 471.00 512.00 471.00 L 512.00 512.00 L 0.00 512.00 L 0.00 471.00 Z" />
</g>
</svg>
