<?xml version="1.0" encoding="utf-8"?>
<!-- Svg Vector Icons : http://www.onlinewebfonts.com/icon -->
<!DOCTYPE svg PUBLIC "-//W3C//DTD SVG 1.1//EN" "http://www.w3.org/Graphics/SVG/1.1/DTD/svg11.dtd">
<svg version="1.1" xmlns="http://www.w3.org/2000/svg" xmlns:xlink="http://www.w3.org/1999/xlink" x="0px" y="0px" viewBox="0 0 1000 1000" enable-background="new 0 0 1000 1000" xml:space="preserve">
<metadata> Svg Vector Icons : http://www.onlinewebfonts.com/icon </metadata>
<g><path fill="none" stroke="#040000" stroke-linecap="round" stroke-linejoin="round" stroke-miterlimit="10" d="M667.4,622.5c36.8-44.9,57.2-102.1,57.2-163.3c0-147-118.4-265.4-265.4-265.4c-147,0-265.4,118.4-265.4,265.4c0,61.2,20.4,118.4,57.2,163.3"/><path d="M459.2,397.9c33.8,0,61.2,27.4,61.2,61.3s-27.4,61.2-61.2,61.2s-61.3-27.4-61.3-61.2S425.3,397.9,459.2,397.9z"/><polygon points="696,222.3 422.4,422.4 495.9,495.9 "/><path d="M602.1,818.5c0-8.2,0-16.3,0-24.5c-40.8,20.4-89.8,32.7-142.9,32.7C255,826.7,91.7,663.3,91.7,459.2S255,91.7,459.2,91.7c183.7,0,338.9,138.8,363.4,314.4l4.1-4.1l49,61.3c8.2,8.2,16.3,20.4,32.7,40.8c0-16.3,4.1-28.6,4.1-44.9C912.4,210.1,712.3,10,463.3,10C214.2,10,10,210.1,10,459.2c0,249.1,200.1,449.2,449.2,449.2c53.1,0,102.1-8.2,151.1-28.6C606.2,863.4,602.1,843,602.1,818.5z"/><g><path d="M826.7,500c0,0-163.3,208.2-163.3,318.5c0,93.9,73.5,171.5,163.3,171.5c89.8,0,163.3-77.6,163.3-171.5C990,708.2,826.7,500,826.7,500z"/></g></g>
</svg>